<svg width="24" height="23" viewBox="0 0 24 23" fill="none" xmlns="http://www.w3.org/2000/svg">
<path fill-rule="evenodd" clip-rule="evenodd" d="M0.761475 1.25C0.761475 1.05109 0.840946 0.860322 0.982407 0.71967C1.12387 0.579018 1.31573 0.5 1.51578 0.5H3.77871C3.94697 0.500046 4.11039 0.556026 4.24296 0.659037C4.37554 0.762048 4.46968 0.906176 4.5104 1.0685L5.12139 3.5H22.6365C22.748 3.50007 22.8582 3.52474 22.959 3.57223C23.0598 3.61972 23.1488 3.68885 23.2195 3.77465C23.2902 3.86044 23.3409 3.96076 23.3679 4.06838C23.3949 4.176 23.3976 4.28823 23.3757 4.397L21.8671 11.897C21.8341 12.0605 21.7472 12.2085 21.6201 12.3174C21.4931 12.4264 21.3331 12.4901 21.1656 12.4985L6.98906 13.2065L7.42203 15.5H20.3735C20.5736 15.5 20.7655 15.579 20.9069 15.7197C21.0484 15.8603 21.1278 16.0511 21.1278 16.25C21.1278 16.4489 21.0484 16.6397 20.9069 16.7803C20.7655 16.921 20.5736 17 20.3735 17H6.79596C6.6201 16.9998 6.44983 16.9386 6.31457 16.8268C6.17932 16.7151 6.08758 16.5599 6.05522 16.388L3.7938 4.4105L3.19035 2H1.51578C1.31573 2 1.12387 1.92098 0.982407 1.78033C0.840946 1.63968 0.761475 1.44891 0.761475 1.25ZM5.44121 5L6.70846 11.7185L20.5033 11.03L21.7162 5H5.44121ZM8.30458 17C7.50435 17 6.73691 17.3161 6.17106 17.8787C5.60522 18.4413 5.28733 19.2044 5.28733 20C5.28733 20.7956 5.60522 21.5587 6.17106 22.1213C6.73691 22.6839 7.50435 23 8.30458 23C9.1048 23 9.87224 22.6839 10.4381 22.1213C11.0039 21.5587 11.3218 20.7956 11.3218 20C11.3218 19.2044 11.0039 18.4413 10.4381 17.8787C9.87224 17.3161 9.1048 17 8.30458 17ZM18.8649 17C18.0647 17 17.2972 17.3161 16.7314 17.8787C16.1656 18.4413 15.8477 19.2044 15.8477 20C15.8477 20.7956 16.1656 21.5587 16.7314 22.1213C17.2972 22.6839 18.0647 23 18.8649 23C19.6651 23 20.4326 22.6839 20.9984 22.1213C21.5643 21.5587 21.8822 20.7956 21.8822 20C21.8822 19.2044 21.5643 18.4413 20.9984 17.8787C20.4326 17.3161 19.6651 17 18.8649 17ZM8.30458 18.5C7.90446 18.5 7.52074 18.658 7.23782 18.9393C6.9549 19.2206 6.79596 19.6022 6.79596 20C6.79596 20.3978 6.9549 20.7794 7.23782 21.0607C7.52074 21.342 7.90446 21.5 8.30458 21.5C8.70469 21.5 9.08841 21.342 9.37133 21.0607C9.65425 20.7794 9.8132 20.3978 9.8132 20C9.8132 19.6022 9.65425 19.2206 9.37133 18.9393C9.08841 18.658 8.70469 18.5 8.30458 18.5ZM18.8649 18.5C18.4648 18.5 18.0811 18.658 17.7982 18.9393C17.5152 19.2206 17.3563 19.6022 17.3563 20C17.3563 20.3978 17.5152 20.7794 17.7982 21.0607C18.0811 21.342 18.4648 21.5 18.8649 21.5C19.265 21.5 19.6488 21.342 19.9317 21.0607C20.2146 20.7794 20.3735 20.3978 20.3735 20C20.3735 19.6022 20.2146 19.2206 19.9317 18.9393C19.6488 18.658 19.265 18.5 18.8649 18.5Z" fill="white"/>
</svg>
